<svg width="250" height="54" fill="none" xmlns="http://www.w3.org/2000/svg"><path d="M62.997 18.93h3v11.956h9v2.989h-12V18.93zm26.999 1.993v11.955h-3V20.923h3zm13 12.952V18.93h14.999v14.945h-14.999zm12-2.99V21.92h-9v8.967h9z" fill="#fff"/><path d="M80.997 18.93v2.989h15v-2.99h-15zm0 11.956v2.989h15v-2.99h-15zm43.998 2.989V18.93h3l9 10.6v-10.6h3v14.945h-3l-9-10.272v10.272h-3zm21.999-14.945h15v2.989h-12v8.967h12v2.989h-15V18.93zm12 8.967h-4.49v-2.99h4.49v2.99zm0 2.989v-5.978h3v5.978h-3zm9.999 2.989V18.93h15v8.967h-12v5.978h-3zm3-12.205v3.487h9V21.67h-9zm7.5 6.227l5.5 5.978h-4l-5.5-5.978h4zm11.499 5.978V18.93h15v14.945h-15zm12-2.99V21.92h-9v8.967h9zm12.999-11.955v11.956h9V18.93h3v14.945h-15V18.93h3zm18.999 14.945V18.93h15v8.967h-12v5.978h-3zm3-12.205v3.487h9V21.67h-9zM47.738 16.44l.26 1.095v-.837l-.26-.259z" fill="#fff"/><path d="M53.998 22.676v11.438L34.238 53.8H19.76L0 34.114V22.676l6-5.978V10.72l4.76-4.742h6l6-5.978h8.479l6 5.978h6l4.76 4.742v5.978l-.26-.259.26 1.096v-.837l5.999 5.978z" fill="#fff"/><path d="M43.498 16.44l1.5-1.495v-2.99l-3-2.988h-6l-6-5.978H24l-6 5.978h-6l-3 2.989v2.989l1.5 1.494L3 23.912v8.966l18 17.934h11.999l18-17.934v-8.966l-7.5-7.473zm-14 28.394H24.5l-3-2.989 5.5-5.48 5.5 5.48-3 2.989zm9.5-17.934v5.978l-6 5.978-4.499-4.483 4.5-4.484v-5.977h3v-2.99h-6v8.47h-6v-8.47h-6v2.99h3v5.977l4.5 4.484-4.5 4.483-6-5.978v-5.977l-3-2.99 12-11.955h6l12 11.956-3 2.989z" fill="#1A1A1A"/><path d="M69.645 47.748c0-1.944-1.212-3.252-3.096-3.252-1.884 0-3.096 1.308-3.096 3.252 0 1.944 1.212 3.252 3.096 3.252 1.884 0 3.096-1.308 3.096-3.252zm-1.44 0c0 1.296-.612 2.1-1.656 2.1s-1.656-.804-1.656-2.1.612-2.1 1.656-2.1 1.656.804 1.656 2.1zm4.258 3.108h1.416v-5.088h2.172V44.64h-5.76v1.128h2.172v5.088zm10.424-3.108c0-1.944-1.212-3.252-3.096-3.252-1.884 0-3.096 1.308-3.096 3.252 0 1.944 1.212 3.252 3.096 3.252 1.884 0 3.096-1.308 3.096-3.252zm-1.44 0c0 1.296-.612 2.1-1.656 2.1s-1.656-.804-1.656-2.1.612-2.1 1.656-2.1 1.656.804 1.656 2.1zm6.73-1.98v5.088h1.416V44.64h-5.448v6.216h1.416v-5.088h2.616zm3.898-1.128v4.164c0 .684-.24 1.044-.924 1.044a3.9 3.9 0 01-.527-.036v1.152c.168.024.407.036.588.036 1.596 0 2.28-.648 2.28-2.148V45.78h2.1v5.076h1.415V44.64h-4.931zm12.242 3.144c0-1.932-1.224-3.288-3.012-3.288-1.824 0-3.036 1.368-3.036 3.252 0 1.908 1.284 3.252 3.24 3.252 1.056 0 1.944-.444 2.532-1.236l-.996-.708c-.408.504-.924.792-1.548.792-.96 0-1.656-.636-1.787-1.584h4.583c.024-.132.024-.348.024-.48zm-3.012-2.136c.852 0 1.512.588 1.584 1.536h-3.191c.132-.96.719-1.536 1.607-1.536zm5.689 1.26V44.64h-1.416v6.216h1.416v-2.82h2.82v2.82h1.416V44.64h-1.416v2.268h-2.82zm11.658 3.948V44.64h-1.404l-2.988 4.188V44.64h-1.416v6.216h1.404l2.988-4.188v4.188h1.416zm7.31-3.072c0-1.932-1.224-3.288-3.012-3.288-1.824 0-3.036 1.368-3.036 3.252 0 1.908 1.284 3.252 3.24 3.252 1.056 0 1.944-.444 2.532-1.236l-.996-.708c-.408.504-.924.792-1.548.792-.96 0-1.656-.636-1.788-1.584h4.584c.024-.132.024-.348.024-.48zm-3.012-2.136c.852 0 1.512.588 1.584 1.536h-3.192c.132-.96.72-1.536 1.608-1.536z" fill="#fff"/></svg>