<svg width="108" height="9" fill="none" xmlns="http://www.w3.org/2000/svg"><path d="M.355.281h1.718v6.75h5.153V8.72H.356V.28zm15.747.844v6.75h-1.718v-6.75h1.718zm7.444 7.594V.28h8.589v8.44h-8.59zm6.87-1.688V1.97h-5.152v5.06h5.153z" fill="#fff"/><path d="M10.948.281V1.97h8.589V.28h-8.589zm0 6.75V8.72h8.589V7.03h-8.589zm25.195 1.688V.28h1.717l5.154 5.985V.281h1.717V8.72h-1.718L37.86 2.917v5.802h-1.717zM48.74.281h8.588V1.97h-6.871v5.06h6.871v1.69h-8.589V.28zm6.87 5.063h-2.576V3.656h2.576v1.688zm0 1.687V3.656h1.718v3.375H55.61zm5.727 1.688V.28h8.589v5.063h-6.871v3.375h-1.718zm1.718-6.75v1.687h5.153V1.97h-5.153zm4.294 3.375l3.15 3.375h-2.291l-3.15-3.375h2.291zm6.585 3.375V.28h8.588v8.44h-8.588zm6.87-1.688V1.97h-5.153v5.06h5.154zm7.444-6.75v6.75h5.153V.281h1.718V8.72H86.53V.28h1.718zm11.166 8.438V.28h8.589v5.063h-6.871v3.375h-1.718zm1.718-6.75v1.687h5.153V1.97h-5.153z" fill="#fff"/></svg>