<svg width="248" height="48" fill="none" xmlns="http://www.w3.org/2000/svg"><path d="M60.002 16.5h3v12h9v3h-12v-15zm27.5 1.5v12h-3V18h3zm13 13.5v-15h15v15h-15zm12-3v-9h-9v9h9z" fill="#1A1A1A"/><path d="M78.502 16.5v3h15v-3h-15zm0 12v3h15v-3h-15zm44 3v-15h3l9 10.64V16.5h3v15h-3l-9-10.315V31.5h-3zm22.002-15h15v3h-12v9h12v3h-15v-15zm12 9h-4.5v-3h4.5v3zm0 3v-6h3v6h-3zm10 3v-15h15v9h-12v6h-3zm3-12v3h9v-3h-9zm7.5 6l5.5 6h-4l-5.5-6h4zm11.5 6v-15h15v15h-15zm12-3v-9h-9v9h9zm13-12v12h9v-12h3v15h-15v-15h3zm19.5 15v-15h15v9h-12v6h-3zm3-12v3h9v-3h-9zM40.5 13.5L42 12V9l-3-3h-6l-6-6h-6l-6 6H9L6 9v3l1.5 1.5L0 21v9l18 18h12l18-18v-9l-7.5-7.5zM29.5 39l-3 3h-5l-3-3 5.5-5.5 5.5 5.5zM36 24v6l-6 6-6-6-6 6-6-6v-6l-3-3L21 9h6l12 12-3 3z" fill="#1A1A1A"/><path d="M33 18v3h-3v6l-6 6-6-6v-6h-3v-3h6v8.5h6V18h6z" fill="#1A1A1A"/></svg>